<svg xmlns="http://www.w3.org/2000/svg" xmlns:xlink="http://www.w3.org/1999/xlink" width="265" zoomAndPan="magnify" viewBox="0 0 198.75 198.749996" height="265" preserveAspectRatio="xMidYMid meet" version="1.0"><path stroke-linecap="butt" transform="matrix(0.749058, 0, 0, 0.749058, -57.385192, -62.918612)" fill="none" stroke-linejoin="miter" d="M 188.516055 264.771 C 186.508324 266.184234 184.500593 267.644402 182.487648 269.146289 C 166.269355 281.296971 155.438039 297.22323 149.998914 316.919851 " stroke="#8e7ffe" stroke-width="2" stroke-opacity="1" stroke-miterlimit="4"/><path fill="#ff5757" d="M 83.824219 135.410156 C 82.320312 136.46875 80.816406 137.5625 79.308594 138.6875 C 67.160156 147.789062 59.046875 159.71875 54.972656 174.472656 C 47.332031 168.070312 40.828125 160.699219 35.457031 152.347656 C 23.78125 134.191406 18.644531 114.300781 20.050781 92.671875 C 22.710938 51.78125 51.125 16.816406 90.246094 5.308594 C 108.253906 0.0117188 126.8125 0.0117188 145.003906 5.242188 C 156.574219 8.570312 167.582031 14.207031 178.023438 22.148438 C 180.503906 24.03125 179.554688 26.589844 178.707031 28.976562 C 174.039062 42.082031 165.726562 52.871094 153.765625 61.347656 C 152.457031 62.277344 151.105469 62.296875 149.714844 61.398438 C 147.128906 59.738281 144.972656 57.753906 142.183594 56.246094 C 137.945312 53.953125 134.144531 52.363281 130.773438 51.46875 C 125.648438 50.117188 119.5625 49.660156 112.503906 50.105469 C 108.453125 50.367188 104.457031 51.277344 100.511719 52.839844 C 88.621094 57.542969 79.714844 65.410156 73.785156 76.441406 C 72.042969 79.683594 70.597656 83.609375 69.449219 88.222656 C 68.523438 91.960938 68.113281 95.878906 68.210938 99.980469 C 68.554688 113.714844 73.757812 125.523438 83.824219 135.410156 Z M 83.824219 135.410156 " fill-opacity="1" fill-rule="nonzero"/><path fill="#fdaf05" d="M 148.144531 99.332031 C 148.144531 100.328125 148.097656 101.324219 148 102.3125 C 147.902344 103.304688 147.757812 104.289062 147.5625 105.269531 C 147.367188 106.246094 147.125 107.210938 146.835938 108.164062 C 146.546875 109.117188 146.210938 110.054688 145.832031 110.976562 C 145.449219 111.894531 145.023438 112.796875 144.554688 113.675781 C 144.082031 114.554688 143.570312 115.40625 143.019531 116.234375 C 142.464844 117.0625 141.871094 117.863281 141.238281 118.632812 C 140.609375 119.402344 139.941406 120.140625 139.234375 120.84375 C 138.53125 121.550781 137.792969 122.21875 137.023438 122.851562 C 136.253906 123.484375 135.453125 124.074219 134.625 124.628906 C 133.796875 125.183594 132.941406 125.695312 132.0625 126.164062 C 131.183594 126.632812 130.285156 127.058594 129.363281 127.441406 C 128.445312 127.820312 127.507812 128.15625 126.554688 128.445312 C 125.601562 128.734375 124.632812 128.976562 123.65625 129.171875 C 122.679688 129.367188 121.695312 129.511719 120.703125 129.609375 C 119.710938 129.707031 118.71875 129.757812 117.722656 129.757812 C 116.726562 129.757812 115.730469 129.707031 114.738281 129.609375 C 113.75 129.511719 112.765625 129.367188 111.785156 129.171875 C 110.808594 128.976562 109.84375 128.734375 108.890625 128.445312 C 107.9375 128.15625 107 127.820312 106.078125 127.441406 C 105.160156 127.058594 104.257812 126.632812 103.378906 126.164062 C 102.5 125.695312 101.648438 125.183594 100.820312 124.628906 C 99.992188 124.074219 99.191406 123.484375 98.421875 122.851562 C 97.652344 122.21875 96.914062 121.550781 96.207031 120.84375 C 95.503906 120.140625 94.835938 119.402344 94.203125 118.632812 C 93.570312 117.863281 92.980469 117.0625 92.425781 116.234375 C 91.871094 115.40625 91.359375 114.554688 90.890625 113.675781 C 90.421875 112.796875 89.996094 111.894531 89.613281 110.976562 C 89.234375 110.054688 88.898438 109.117188 88.609375 108.164062 C 88.320312 107.210938 88.078125 106.246094 87.882812 105.269531 C 87.6875 104.289062 87.542969 103.304688 87.445312 102.3125 C 87.347656 101.324219 87.296875 100.328125 87.296875 99.332031 C 87.296875 98.335938 87.347656 97.34375 87.445312 96.351562 C 87.542969 95.359375 87.6875 94.375 87.882812 93.398438 C 88.078125 92.417969 88.320312 91.453125 88.609375 90.5 C 88.898438 89.546875 89.234375 88.609375 89.613281 87.691406 C 89.996094 86.769531 90.421875 85.871094 90.890625 84.992188 C 91.359375 84.113281 91.871094 83.257812 92.425781 82.429688 C 92.980469 81.601562 93.570312 80.800781 94.203125 80.03125 C 94.835938 79.261719 95.503906 78.523438 96.207031 77.820312 C 96.914062 77.113281 97.652344 76.445312 98.421875 75.8125 C 99.191406 75.183594 99.992188 74.589844 100.820312 74.035156 C 101.648438 73.480469 102.5 72.96875 103.378906 72.5 C 104.257812 72.03125 105.160156 71.605469 106.078125 71.222656 C 107 70.84375 107.9375 70.507812 108.890625 70.21875 C 109.84375 69.929688 110.808594 69.6875 111.785156 69.492188 C 112.765625 69.296875 113.75 69.152344 114.738281 69.054688 C 115.730469 68.957031 116.726562 68.910156 117.722656 68.910156 C 118.71875 68.910156 119.710938 68.957031 120.703125 69.054688 C 121.695312 69.152344 122.679688 69.296875 123.65625 69.492188 C 124.632812 69.6875 125.601562 69.929688 126.554688 70.21875 C 127.507812 70.507812 128.445312 70.84375 129.363281 71.222656 C 130.285156 71.605469 131.183594 72.03125 132.0625 72.5 C 132.941406 72.96875 133.796875 73.480469 134.625 74.035156 C 135.453125 74.589844 136.253906 75.183594 137.023438 75.8125 C 137.792969 76.445312 138.53125 77.113281 139.234375 77.820312 C 139.941406 78.523438 140.609375 79.261719 141.238281 80.03125 C 141.871094 80.800781 142.464844 81.601562 143.019531 82.429688 C 143.570312 83.257812 144.082031 84.113281 144.554688 84.992188 C 145.023438 85.871094 145.449219 86.769531 145.832031 87.691406 C 146.210938 88.609375 146.546875 89.546875 146.835938 90.5 C 147.125 91.453125 147.367188 92.417969 147.5625 93.398438 C 147.757812 94.375 147.902344 95.359375 148 96.351562 C 148.097656 97.34375 148.144531 98.335938 148.144531 99.332031 Z M 148.144531 99.332031 " fill-opacity="1" fill-rule="nonzero"/><path fill="#fdaf05" d="M 83.824219 135.410156 C 84.929688 136.199219 86.015625 137.027344 87.089844 137.894531 C 98.578125 147.175781 112.726562 150.476562 127.300781 147.785156 C 135.570312 146.253906 143.089844 142.292969 149.78125 137.011719 C 151.378906 135.753906 152.695312 136.414062 154.175781 137.453125 C 166.261719 145.933594 174.65625 157.285156 179.355469 171.511719 C 180.070312 173.671875 179.613281 175.367188 177.882812 176.695312 C 166.734375 185.246094 154.6875 191.125 141.746094 194.335938 C 112.628906 201.558594 81.976562 195.40625 58.160156 177.347656 C 56.980469 176.453125 55.917969 175.496094 54.972656 174.472656 C 59.046875 159.71875 67.160156 147.789062 79.308594 138.6875 C 80.816406 137.5625 82.320312 136.46875 83.824219 135.410156 Z M 83.824219 135.410156 " fill-opacity="1" fill-rule="nonzero"/></svg>